 <svg version="1.0" xmlns="http://www.w3.org/2000/svg"  width="120" height="100" viewBox="0 0 651.000000 576.000000"  preserveAspectRatio="xMidYMid meet">  <g transform="translate(0.000000,576.000000) scale(0.100000,-0.100000)" fill="currentColor" stroke="none"> <path d="M5410 4343 c-8 -3 -26 -19 -40 -35 -13 -15 -35 -28 -47 -28 -19 0 -23 -5 -23 -29 0 -16 -7 -34 -15 -41 -8 -7 -15 -18 -15 -25 0 -7 7 -18 15 -25 8 -7 15 -29 15 -49 0 -20 8 -58 18 -86 15 -41 23 -51 47 -56 25 -5 27 -7 13 -13 -22 -10 -24 -36 -3 -36 8 0 15 7 15 15 0 13 10 15 57 10 59 -5 93 10 93 42 0 7 7 16 15 19 23 9 21 113 -2 130 -17 12 -17 14 -1 46 26 49 26 110 1 135 -21 21 -113 38 -143 26z m123 -48 c1 -5 -10 -11 -25 -13 -35 -4 -36 -19 -3 -32 60 -23 -2 -102 -95 -120 -19 -4 -42 -11 -52 -14 -11 -5 -18 -1 -23 13 -8 27 40 101 78 119 33 16 34 27 5 37 l-23 8 23 4 c13 3 28 0 35 -5 8 -7 18 -6 32 4 21 16 45 15 48 -1z m7 -175 c0 -5 -9 -14 -21 -20 -19 -11 -19 -13 -5 -29 9 -10 16 -24 16 -32 0 -25 -39 -59 -67 -59 -35 0 -92 39 -99 67 -11 43 1 53 64 53 41 0 64 5 72 15 14 17 40 20 40 5z"/> <path d="M4413 3952 c-15 -10 -22 -57 -8 -57 6 0 21 8 34 17 37 26 12 64 -26 40z"/> <path d="M4517 3923 c-15 -14 -5 -32 23 -42 25 -8 32 -7 37 4 9 24 -5 45 -30 45 -13 0 -27 -3 -30 -7z"/> <path d="M4370 3841 c-9 -18 -9 -29 0 -50 11 -25 12 -25 26 -6 18 24 18 36 0 60 -13 18 -14 18 -26 -4z"/> <path d="M4610 3845 c0 -8 4 -15 9 -15 5 0 13 -9 16 -20 3 -11 13 -20 21 -20 23 0 28 29 9 50 -21 24 -55 26 -55 5z"/> <path d="M5354 3846 c-10 -26 0 -51 21 -51 16 0 20 7 20 30 0 33 -30 49 -41 21z"/> <path d="M4694 3745 c-9 -23 5 -65 21 -65 20 0 30 46 15 65 -16 19 -29 19 -36 0z"/> <path d="M5322 3725 c-29 -33 -28 -45 3 -45 32 0 53 36 33 56 -12 12 -17 11 -36 -11z"/> <path d="M4397 3734 c-10 -10 15 -53 36 -60 34 -11 44 13 17 41 -23 25 -41 31 -53 19z"/> <path d="M4491 3646 c-8 -10 -5 -20 13 -41 21 -24 27 -27 40 -16 22 18 20 24 -13 49 -24 17 -31 19 -40 8z"/> <path d="M5226 3630 c-22 -23 -15 -50 13 -50 21 0 56 52 44 64 -12 11 -38 5 -57 -14z"/> <path d="M4678 3600 c-15 -20 -25 -27 -32 -20 -14 14 -46 13 -46 -1 0 -7 8 -18 18 -25 16 -13 15 -16 -10 -38 -36 -32 -35 -46 1 -46 22 0 30 6 35 24 3 14 24 43 46 65 41 41 52 71 25 71 -8 0 -24 -14 -37 -30z"/> <path d="M5132 3575 c-44 -24 -47 -33 -18 -47 25 -11 30 -10 47 12 34 45 20 62 -29 35z"/> <path d="M4730 3542 c0 -11 9 -27 20 -37 20 -18 21 -18 38 -1 16 16 16 18 -7 37 -29 24 -51 24 -51 1z"/> <path d="M4853 3524 c-8 -23 12 -38 41 -30 29 7 35 31 10 40 -26 10 -44 7 -51 -10z"/> <path d="M4983 3533 c-20 -7 -15 -31 7 -38 24 -8 60 11 60 30 0 15 -40 20 -67 8z"/> <path d="M3961 3471 c-22 -14 -3 -31 34 -31 40 0 53 15 26 29 -24 13 -41 14 -60 2z"/> <path d="M4092 3467 c-10 -11 -9 -17 2 -26 23 -19 61 -10 61 14 0 25 -46 33 -63 12z"/> <path d="M3502 3461 c-25 -15 -10 -46 22 -46 35 0 43 16 21 39 -19 18 -25 19 -43 7z"/> <path d="M4226 3462 c-10 -9 -7 -50 5 -57 15 -10 59 3 59 18 0 14 -56 48 -64 39z"/> <path d="M4482 3447 c-24 -25 -20 -37 10 -37 22 0 58 29 58 47 0 21 -45 15 -68 -10z"/> <path d="M3352 3437 c-19 -22 10 -40 48 -32 22 5 30 12 28 23 -4 22 -60 28 -76 9z"/> <path d="M3623 3443 c-22 -8 -14 -32 12 -39 29 -7 56 11 48 32 -5 14 -35 17 -60 7z"/> <path d="M3843 3443 c-28 -11 -13 -33 22 -33 28 0 35 4 35 20 0 20 -26 26 -57 13z"/> <path d="M4353 3443 c-21 -8 -14 -30 11 -37 30 -7 56 2 56 19 0 20 -37 31 -67 18z"/> <path d="M3744 3416 c-3 -8 -1 -24 5 -35 7 -13 8 -22 1 -26 -15 -9 -12 -35 3 -35 18 0 57 42 57 62 0 29 -57 58 -66 34z"/> <path d="M3238 3413 c-21 -5 -24 -29 -4 -36 24 -10 56 4 56 24 0 19 -14 22 -52 12z"/> <path d="M3133 3361 c-29 -24 -29 -38 -1 -47 17 -5 27 0 44 22 13 15 21 31 18 36 -9 14 -38 8 -61 -11z"/> <path d="M3850 3366 c0 -21 28 -46 51 -46 25 0 24 21 -1 43 -25 21 -50 22 -50 3z"/> <path d="M3050 3275 c0 -8 -9 -23 -21 -34 -12 -11 -18 -24 -14 -30 9 -16 65 -14 65 3 0 7 3 28 6 45 6 27 4 31 -15 31 -12 0 -21 -6 -21 -15z"/> <path d="M3930 3282 c0 -4 5 -24 11 -45 12 -45 42 -48 47 -5 2 21 -3 29 -27 41 -17 9 -31 12 -31 9z"/> <path d="M2731 3268 c-43 -12 -69 -46 -105 -138 -3 -8 -17 -33 -31 -55 -13 -22 -24 -47 -25 -56 0 -9 -7 -30 -15 -45 -8 -16 -15 -39 -15 -51 0 -31 -23 -40 -120 -48 -96 -7 -227 -33 -235 -46 -3 -4 4 -13 16 -20 28 -15 181 -4 240 16 84 30 85 25 29 -135 -7 -19 -15 -55 -18 -80 -2 -25 -11 -54 -18 -65 -8 -11 -14 -26 -14 -33 0 -8 -13 -31 -29 -51 -15 -20 -30 -40 -32 -46 -2 -5 -26 -43 -54 -83 -27 -40 -55 -83 -62 -96 -14 -26 -127 -136 -140 -136 -5 0 -18 6 -29 14 -17 13 -19 26 -17 143 1 93 6 140 17 167 9 21 16 50 16 64 0 58 55 192 79 192 18 0 32 -56 21 -84 -5 -15 -10 -43 -10 -62 0 -28 4 -34 20 -34 34 0 70 47 70 92 0 68 -62 158 -109 158 -45 0 -160 -126 -161 -177 0 -10 -7 -27 -15 -37 -8 -11 -15 -32 -15 -47 0 -14 -7 -32 -15 -39 -8 -7 -15 -21 -15 -32 0 -11 -7 -26 -15 -34 -8 -9 -15 -23 -15 -33 0 -21 -112 -131 -134 -131 -32 0 -31 73 2 175 10 28 23 54 30 58 6 4 12 21 12 36 0 30 -30 51 -75 51 -30 0 -65 -47 -71 -97 -3 -21 -10 -68 -15 -105 -12 -77 -3 -102 54 -155 49 -46 104 -46 141 -2 14 17 26 37 26 45 0 8 5 14 10 14 6 0 16 11 22 25 21 45 28 26 28 -72 0 -106 9 -131 62 -172 32 -25 49 -26 91 -5 68 35 181 149 210 214 4 8 16 29 27 45 11 17 24 40 30 53 5 12 14 22 19 22 18 0 19 -43 0 -108 -25 -90 -26 -248 -1 -277 48 -56 104 -69 137 -32 31 34 85 104 85 111 0 3 19 34 43 69 24 34 46 69 50 77 4 8 16 29 27 45 10 17 30 54 45 83 22 45 45 68 45 45 0 -5 17 -27 38 -51 30 -34 48 -45 79 -49 46 -6 74 15 108 80 20 39 45 49 45 20 1 -29 33 -79 65 -105 24 -18 42 -23 91 -23 58 0 65 3 110 41 27 23 54 51 60 63 6 12 23 35 38 50 14 15 26 32 26 38 0 6 7 16 15 23 8 7 15 20 15 29 1 34 35 63 76 65 l39 1 0 -49 c0 -38 5 -52 24 -67 15 -13 31 -17 45 -13 12 4 21 7 22 8 0 0 17 35 37 77 20 41 48 92 62 113 14 20 25 39 25 42 0 10 44 64 52 64 4 0 8 -9 8 -20 0 -11 -4 -20 -10 -20 -5 0 -10 -6 -10 -12 0 -7 -7 -26 -16 -43 -8 -16 -18 -67 -21 -113 -6 -81 -5 -83 23 -113 77 -80 124 -72 186 33 34 57 43 66 55 56 10 -8 13 -23 9 -46 -7 -43 20 -107 51 -121 54 -25 129 37 183 149 17 36 36 72 41 80 5 8 13 25 19 38 5 12 14 22 20 22 20 0 23 -33 6 -84 -19 -64 -20 -99 -2 -150 14 -42 70 -106 92 -106 16 0 84 40 84 49 0 4 8 16 18 27 10 10 21 26 25 34 4 8 16 29 26 45 27 41 54 98 82 170 12 33 29 66 36 74 14 17 99 25 108 11 3 -5 -6 -38 -20 -73 -14 -35 -25 -70 -25 -78 0 -8 -7 -25 -16 -38 -12 -17 -17 -47 -18 -102 -1 -76 0 -79 33 -113 20 -20 45 -36 57 -36 15 0 51 27 102 78 59 58 88 96 117 155 21 42 42 77 46 77 4 0 9 10 11 22 4 28 28 36 28 9 0 -11 -5 -32 -12 -46 -15 -34 6 -99 40 -121 22 -14 31 -15 61 -4 50 18 121 66 156 108 17 19 42 49 58 66 15 17 35 48 45 68 31 67 61 43 42 -33 -7 -24 -17 -69 -25 -100 -17 -76 -30 -96 -113 -183 -40 -42 -105 -125 -145 -184 -152 -226 -162 -292 -55 -361 75 -49 142 -39 197 31 12 14 21 31 21 36 0 6 8 25 17 44 9 18 22 45 30 60 7 14 13 35 13 45 0 10 5 24 12 31 6 6 15 30 19 54 4 24 13 63 19 88 23 91 33 136 41 185 17 107 28 124 154 245 209 200 216 207 209 224 -12 32 -46 15 -117 -58 -40 -41 -101 -104 -136 -141 -46 -47 -67 -63 -75 -55 -8 8 -8 13 0 18 6 4 14 21 18 37 4 17 25 67 47 111 40 84 42 106 8 124 -47 26 -109 4 -109 -38 0 -17 -14 -43 -40 -72 -22 -25 -53 -63 -68 -85 -49 -71 -175 -195 -199 -195 -21 0 -23 4 -23 64 0 37 6 76 15 92 8 16 15 40 15 54 1 14 7 36 15 50 8 14 14 36 15 49 0 14 7 32 15 41 9 10 18 33 22 53 4 29 2 37 -16 46 -29 16 -67 4 -88 -27 -32 -49 -53 -96 -53 -119 0 -12 -4 -24 -9 -27 -5 -3 -19 -25 -31 -48 -12 -24 -35 -62 -51 -86 -16 -24 -29 -46 -29 -49 0 -3 -12 -22 -27 -42 -34 -45 -50 -70 -62 -97 -18 -42 -72 -94 -97 -94 -28 0 -30 16 -9 56 8 16 15 38 15 49 1 11 7 31 15 45 8 14 14 37 15 51 0 14 7 34 15 45 8 10 15 28 15 39 0 11 7 29 15 39 38 51 1 81 -100 81 l-70 0 2 33 c0 18 9 42 18 52 25 28 16 64 -18 68 -36 4 -76 -28 -99 -80 -17 -37 -17 -43 -3 -64 16 -26 20 -64 6 -64 -5 0 -18 -17 -28 -37 -51 -100 -117 -221 -135 -246 -27 -38 -62 -34 -66 8 -5 43 29 246 45 271 18 28 21 100 5 116 -6 6 -26 11 -43 11 -25 0 -40 -8 -61 -34 l-29 -34 -20 24 c-10 13 -19 29 -19 37 0 33 -110 84 -122 56 -1 -4 -21 -22 -43 -40 -22 -17 -48 -46 -56 -64 -26 -51 -49 -105 -49 -113 0 -10 -54 -76 -127 -155 -44 -47 -64 -62 -77 -57 -16 6 -17 16 -11 85 6 63 14 89 44 141 72 127 73 129 59 168 -14 38 -37 52 -73 45 -24 -4 -156 -193 -190 -274 -25 -56 -30 -62 -48 -55 -18 7 -4 139 18 170 8 12 15 29 15 37 0 9 11 27 25 40 32 30 29 61 -7 78 -47 22 -71 8 -91 -56 -9 -31 -17 -65 -17 -75 0 -9 -8 -44 -17 -77 -14 -53 -20 -61 -47 -69 -43 -11 -51 0 -37 53 18 74 14 164 -9 193 -95 121 -199 91 -261 -75 -6 -18 -24 -39 -39 -47 -39 -20 -98 -84 -121 -132 -11 -24 -25 -45 -30 -49 -5 -3 -9 -13 -9 -23 0 -10 -7 -24 -15 -31 -8 -7 -15 -19 -15 -27 0 -22 -105 -123 -128 -123 -44 0 -29 117 29 232 10 20 19 43 19 51 0 27 -78 48 -108 28 -21 -13 -42 -61 -49 -111 -4 -32 -23 -72 -68 -140 -34 -52 -101 -155 -149 -227 -87 -134 -117 -160 -129 -113 -6 25 10 140 28 200 10 33 12 57 5 90 -5 25 -9 56 -9 70 l0 25 11 -22 c21 -44 31 -25 24 48 -6 66 -5 70 13 64 16 -5 19 1 24 42 3 26 10 49 16 51 6 2 11 16 11 30 0 15 9 44 20 65 11 20 20 54 20 75 0 56 20 68 120 76 85 7 130 24 130 50 0 8 -6 16 -13 19 -15 6 -101 -7 -137 -21 -14 -5 -31 -7 -37 -5 -19 7 -15 47 7 76 11 14 20 31 20 38 0 24 42 99 71 128 16 16 29 39 29 50 0 11 5 23 10 26 18 11 11 32 -15 43 -30 14 -38 14 -84 0z m739 -443 c15 -40 0 -199 -22 -235 -17 -28 -22 -30 -56 -24 -40 7 -72 35 -72 65 0 21 35 130 52 164 31 60 81 75 98 30z m900 -65 c6 -21 15 -42 20 -45 15 -9 12 -51 -5 -65 -8 -7 -15 -17 -15 -22 0 -5 -11 -24 -24 -41 -13 -18 -34 -52 -48 -77 -39 -73 -52 -90 -69 -90 -9 0 -19 6 -22 14 -8 20 12 144 29 183 8 17 14 38 14 47 0 22 31 87 54 114 30 34 54 28 66 -18z m-1080 -171 c0 -22 42 -49 75 -49 38 0 56 -21 46 -55 -19 -63 -120 -178 -168 -190 -56 -14 -86 38 -59 105 9 22 16 49 16 59 0 10 7 32 15 47 8 16 15 39 15 51 0 12 10 29 22 37 21 15 38 13 38 -5z m2244 -287 c-6 -4 -16 -27 -22 -52 -5 -25 -15 -60 -21 -77 -6 -18 -16 -48 -22 -65 -6 -18 -13 -44 -16 -58 -2 -14 -12 -41 -20 -60 -9 -19 -23 -51 -31 -70 -40 -88 -88 -105 -117 -40 -17 37 -17 43 -2 78 8 20 18 44 21 52 4 8 15 29 26 45 11 17 24 39 30 50 6 11 16 29 23 40 87 140 133 193 151 175 8 -8 8 -13 0 -18z"/> <path d="M3728 3264 c-13 -13 -14 -22 -6 -40 23 -50 65 -30 53 26 -7 34 -23 38 -47 14z"/> <path d="M2903 3233 c-18 -7 -16 -30 3 -37 8 -3 25 -1 37 5 20 11 20 12 2 25 -20 15 -23 15 -42 7z"/> <path d="M3137 3196 c-8 -20 17 -38 45 -34 37 5 31 42 -8 46 -21 2 -33 -2 -37 -12z"/> <path d="M1545 3180 c-37 -14 -175 -181 -230 -279 -6 -11 -16 -25 -22 -32 -6 -8 -33 -57 -61 -109 -27 -52 -60 -115 -74 -140 -13 -25 -38 -81 -57 -125 -18 -44 -39 -92 -47 -107 -8 -14 -14 -33 -14 -41 0 -18 -41 -86 -52 -87 -12 0 -10 38 2 45 6 3 10 21 10 40 0 19 5 46 12 62 6 15 17 51 24 78 23 92 37 140 50 172 8 17 14 38 14 46 0 8 7 28 15 43 8 16 15 39 15 51 0 12 4 24 9 28 5 3 12 20 16 38 8 38 43 114 56 123 5 3 9 22 9 43 0 30 -6 42 -30 59 -16 12 -36 22 -44 22 -39 0 -127 -172 -165 -325 -4 -17 -13 -40 -19 -52 -7 -12 -12 -31 -12 -42 0 -10 -6 -32 -14 -48 -15 -30 -32 -107 -46 -215 -5 -37 -19 -114 -31 -170 -14 -65 -23 -157 -26 -249 -5 -140 -4 -148 16 -168 14 -14 34 -21 61 -21 34 0 42 4 50 26 6 14 8 29 6 33 -7 11 20 191 34 231 7 19 19 47 26 62 8 14 14 34 14 43 0 9 6 29 13 43 8 15 21 44 30 65 35 81 47 106 101 217 31 63 69 138 86 165 16 28 34 60 40 72 5 13 34 59 65 103 30 45 55 83 55 86 0 2 17 27 37 54 26 35 44 50 60 50 22 0 23 -4 23 -62 0 -35 -7 -81 -15 -103 -8 -22 -14 -59 -15 -81 0 -23 -7 -58 -15 -77 -8 -20 -15 -48 -15 -63 0 -14 -7 -49 -16 -78 -9 -28 -22 -71 -30 -96 -8 -25 -14 -54 -14 -66 0 -11 -7 -29 -15 -40 -8 -10 -15 -31 -15 -45 0 -15 -7 -32 -15 -39 -8 -7 -15 -22 -15 -34 0 -11 -7 -30 -15 -40 -8 -11 -15 -30 -15 -42 0 -12 -7 -27 -15 -34 -8 -7 -15 -19 -15 -26 0 -20 -44 -88 -77 -118 -43 -40 -69 -34 -129 28 -58 60 -76 55 -42 -13 24 -49 80 -96 127 -104 68 -14 108 2 171 64 59 59 66 69 115 166 14 29 30 55 36 58 5 4 9 16 9 29 0 12 5 27 12 34 6 6 15 33 19 59 4 27 17 73 29 103 12 30 26 71 30 90 5 19 13 53 19 75 36 146 41 184 36 290 -5 120 -22 208 -45 241 -21 29 -51 43 -75 34z m-505 -415 c0 -13 -4 -27 -10 -30 -6 -4 -10 8 -10 30 0 22 4 34 10 30 6 -3 10 -17 10 -30z m-30 -80 c0 -34 -17 -40 -23 -7 -3 15 -3 30 0 35 8 14 23 -4 23 -28z m-30 -105 c0 -16 -4 -32 -10 -35 -6 -4 -10 10 -10 35 0 25 4 39 10 35 6 -3 10 -19 10 -35z m-20 -175 c-7 -8 -16 -15 -21 -15 -15 0 -10 22 9 36 20 15 29 0 12 -21z m528 -41 c-5 -28 -28 -29 -28 -1 0 13 3 27 7 31 10 10 25 -10 21 -30z"/> <path d="M2991 3161 c-13 -23 -4 -51 15 -51 9 0 14 11 14 29 0 37 -15 48 -29 22z"/> <path d="M3257 3148 c-8 -28 9 -48 38 -48 33 0 37 24 9 49 -31 27 -40 26 -47 -1z"/> <path d="M3911 3151 c-27 -21 -23 -58 5 -47 9 3 20 6 25 6 5 0 9 14 9 30 0 35 -6 36 -39 11z"/> <path d="M3770 3140 c0 -22 34 -44 56 -36 22 9 16 32 -11 44 -36 17 -45 15 -45 -8z"/> <path d="M2985 3021 c6 -28 4 -31 -19 -31 -33 0 -46 -26 -40 -76 6 -40 -27 -134 -46 -134 -6 0 -10 -13 -10 -30 0 -24 5 -31 27 -36 22 -6 31 -2 54 25 15 18 32 52 38 75 15 56 41 84 82 88 36 3 45 21 13 27 -40 7 -69 41 -69 79 0 28 -5 37 -18 40 -16 3 -18 -1 -12 -27z"/> <path d="M3325 3041 c-10 -17 14 -51 36 -51 30 0 23 54 -8 58 -11 2 -24 -2 -28 -7z"/> <path d="M3295 2919 c-4 -6 -4 -13 -1 -16 8 -8 36 5 36 17 0 13 -27 13 -35 -1z"/> <path d="M3173 2904 c-20 -9 -15 -31 8 -37 29 -8 51 2 47 22 -3 16 -33 24 -55 15z"/> <path d="M1779 2849 c-8 -16 -8 -27 1 -44 10 -18 9 -28 -4 -53 -9 -17 -16 -37 -16 -45 0 -8 -7 -20 -16 -27 -9 -8 -14 -25 -12 -44 2 -25 8 -32 28 -34 19 -2 31 7 53 37 15 22 27 48 27 58 0 11 13 37 30 59 34 45 36 56 14 89 -22 34 -88 36 -105 4z"/> </g> </svg>  